<svg class="main-svg" xmlns="http://www.w3.org/2000/svg" xmlns:xlink="http://www.w3.org/1999/xlink" width="300" height="30" style="" viewBox="0 0 300 30"><rect x="0" y="0" width="300" height="30" style="fill: rgb(0, 0, 0); fill-opacity: 1;"/><defs id="defs-4d4813"><g class="clips"><clipPath id="clip4d4813xyplot" class="plotclip"><rect width="300" height="30"/></clipPath><clipPath class="axesclip" id="clip4d4813x"><rect x="0" y="0" width="300" height="30"/></clipPath><clipPath class="axesclip" id="clip4d4813y"><rect x="0" y="0" width="300" height="30"/></clipPath><clipPath class="axesclip" id="clip4d4813xy"><rect x="0" y="0" width="300" height="30"/></clipPath></g><g class="gradients"/><g class="patterns"/></defs><g class="bglayer"/><g class="layer-below"><g class="imagelayer"/><g class="shapelayer"/></g><g class="cartesianlayer"><g class="subplot xy"><g class="layer-subplot"><g class="shapelayer"/><g class="imagelayer"/></g><g class="minor-gridlayer"><g class="x"/><g class="y"/></g><g class="gridlayer"><g class="x"/><g class="y"/></g><g class="zerolinelayer"/><path class="xlines-below"/><path class="ylines-below"/><g class="overlines-below"/><g class="xaxislayer-below"/><g class="yaxislayer-below"/><g class="overaxes-below"/><g class="plot" transform="" clip-path="url(#clip4d4813xyplot)"><g class="scatterlayer mlayer"><g class="trace scatter tracea8cb98" style="stroke-miterlimit: 2; opacity: 1;"><g class="fills"/><g class="errorbars"/><g class="lines"><path class="js-line" d="M18,23.1L20.67,9.6L23.33,4.2L26,23.1L28.67,28.5L31.33,4.2L34,1.5L36.67,20.4L39.33,23.1L42,17.7L44.67,28.5L47.33,6.9L50,15L55.33,15L58,6.9L60.67,9.6L63.33,23.1L66,28.5L68.67,23.1L71.33,17.7L74,9.6L79.33,15L82,12.3L84.67,4.2L87.33,9.6L90,17.7L92.67,1.5L95.33,20.4L98,17.7L100.67,9.6L103.33,6.9L106,28.5L108.67,12.3L111.33,17.7L114,28.5L116.67,1.5L119.33,20.4L122,20.4L124.67,23.1L127.33,12.3L130,20.4L132.67,6.9L135.33,20.4L138,6.9L140.67,1.5L143.33,12.3L146,9.6L151.33,28.5L154,12.3L156.67,1.5L159.33,9.6L162,23.1L164.67,17.7L167.33,9.6L170,4.2L172.67,28.5L175.33,1.5L178,20.4L180.67,15L183.33,20.4L186,12.3L188.67,15L191.33,28.5L194,25.8L196.67,20.4L199.33,20.4L202,28.5L204.67,6.9L207.33,20.4L210,12.3L212.67,9.6L215.33,15L218,4.2L220.67,1.5L223.33,1.5L226,1.5L228.67,6.9L231.33,15L234,28.5L236.67,17.7L239.33,25.8L242,4.2L244.67,20.4L247.33,23.1L250,9.6L252.67,1.5L255.33,23.1L258,23.1L260.67,25.8L266,6.9L268.67,9.6L271.33,6.9L274,25.8L276.67,23.1L279.33,6.9L282,9.6" style="vector-effect: none; fill: none; stroke: rgb(221, 221, 221); stroke-opacity: 1; stroke-width: 1px; opacity: 1;"/></g><g class="points"/><g class="text"/></g><g class="trace scatter tracec968bf" style="stroke-miterlimit: 2; opacity: 1;"><g class="fills"/><g class="errorbars"/><g class="lines"/><g class="points"><path class="point" transform="translate(18,23.1)" d="M2,0A2,2 0 1,1 0,-2A2,2 0 0,1 2,0Z" style="opacity: 1; stroke-width: 0px; fill: rgb(70, 130, 180); fill-opacity: 1;"/></g><g class="text"/></g><g class="trace scatter traced9816b" style="stroke-miterlimit: 2; opacity: 1;"><g class="fills"/><g class="errorbars"/><g class="lines"/><g class="points"><path class="point" transform="translate(282,9.6)" d="M2,0A2,2 0 1,1 0,-2A2,2 0 0,1 2,0Z" style="opacity: 1; stroke-width: 0px; fill: rgb(255, 99, 71); fill-opacity: 1;"/></g><g class="text"/></g></g></g><g class="overplot"/><path class="xlines-above crisp" d="M0,0" style="fill: none;"/><path class="ylines-above crisp" d="M0,0" style="fill: none;"/><g class="overlines-above"/><g class="xaxislayer-above"/><g class="yaxislayer-above"/><g class="overaxes-above"/></g></g><g class="polarlayer"/><g class="smithlayer"/><g class="ternarylayer"/><g class="geolayer"/><g class="funnelarealayer"/><g class="pielayer"/><g class="iciclelayer"/><g class="treemaplayer"/><g class="sunburstlayer"/><g class="glimages"/><defs id="topdefs-4d4813"><g class="clips"/></defs><g class="layer-above"><g class="imagelayer"/><g class="shapelayer"/></g><g class="infolayer"><g class="g-gtitle"/><g class="g-xtitle"/><g class="g-ytitle"/></g></svg>